# xmcd CD database file
#
# Track frame offsets:
#	151
#	10206
#	16240
#	27960
#	36541
#	48795
#	56488
#	67315
#	75583
#	83124
#	91049
#	98933
#	106612
#	117988
#	123479
#	133808
#	139394
#	146967
#	163062
#	177045
#	190826
#	201121
#	214156
#
# Disc length: 3025 seconds
#
# Revision: 0
# Processed by: cddbd v1.4PL0 Copyright (c) Steve Scherf et al.
# Submitted via: Feurio! 1.66 - http://www.feurio.com
#
DISCID=460bcf17
DTITLE=Dean MARTIN - Again
DYEAR=1999
DGENRE=Country
TTITLE0=You won't be satisfied (Live)
TTITLE1=Money Song (+ JL and Lucille Ball) (Live
TTITLE2=Faraway places (Live)
TTITLE3=Sunflower (Live)
TTITLE4=Dreamer with a penny (Live)
TTITLE5=Someone like you (Live)
TTITLE6=Again (Live)
TTITLE7=How it lies (Life)
TTITLE8=I don't see me in your eyes anymore (Live)
TTITLE9=Candy kisses (Live)
TTITLE10=3 wishes (Life)
TTITLE11=I can't give you anything but love (Live)
TTITLE12=A-You're adorable (Live)
TTITLE13=Toot toot tootsie (goodbye) (Live)
TTITLE14=Sioux St. Marie (Live)
TTITLE15=Baby it's cold outside (+ Marilyn Maxwell) (Live)
TTITLE16=Take your girlie to the movies (Live)
TTITLE17=Some enchanted evening (Live)
TTITLE18=That certain party (+ Jerry Lewis) (Live)
TTITLE19=Tarra ta-larra ta lar (Live)
TTITLE20=Once in love with Amy (Live)
TTITLE21=Which way did my heart go (Live)
TTITLE22=All of me (Live)
EXTD=
EXTT0=
EXTT1=
EXTT2=
EXTT3=
EXTT4=
EXTT5=
EXTT6=
EXTT7=
EXTT8=
EXTT9=
EXTT10=
EXTT11=
EXTT12=
EXTT13=
EXTT14=
EXTT15=
EXTT16=
EXTT17=
EXTT18=
EXTT19=
EXTT20=
EXTT21=
EXTT22=
PLAYORDER=
